# xmcd CD database file
#
# Track frame offsets:
#	183
#	15010
#	31578
#	42663
#	57750
#	62638
#	75285
#	91930
#	102333
#	119035
#	135285
#	141180
#	180163
#	191215
#	204890
#	214633
#	224335
#
# Disc length: 3326 seconds
#
# Revision: 0
# Processed by: cddbd v1.4PL0 Copyright (c) Steve Scherf et al.
# Submitted via: CDex 1.50Beta7
#
DISCID=db0cfc11
DTITLE=B-Shops for the Poor and Peter Brotzmann - Visions and Blueprints
DYEAR=1900
DGENRE=Jazz
TTITLE0=Later Thank You Think 
TTITLE1=03A
TTITLE2=Slanting Hours
TTITLE3=Weimar Years 
TTITLE4=Fear of Drift
TTITLE5=Think Belt
TTITLE6=Sigh 
TTITLE7=Safety Square
TTITLE8=Little Judge
TTITLE9=Pilot Fish
TTITLE10=Orders
TTITLE11=No Statues
TTITLE12=Flags in Wounds
TTITLE13=Meat First
TTITLE14=Out Station
TTITLE15=Rotten Elements
TTITLE16=Dictaphone Scream
EXTD=
EXTT0=
EXTT1=
EXTT2=
EXTT3=
EXTT4=
EXTT5=
EXTT6=
EXTT7=
EXTT8=
EXTT9=
EXTT10=
EXTT11=
EXTT12=
EXTT13=
EXTT14=
EXTT15=
EXTT16=
PLAYORDER=
